G04 Layer_Color=32896*
%FSLAX44Y44*%
%MOMM*%
G71*
G01*
G75*
%ADD89C,0.0000*%
D89*
X114699Y431899D02*
X164701D01*
X201681Y431800D01*
X183500Y518099D02*
X201681Y431800D01*
X203200Y381000D02*
X230119Y431800D01*
X25799Y253901D02*
X75801D01*
X95250Y25400D01*
X241300Y88900D01*
X162560Y6350D02*
X233561Y6949D01*
X242451Y25999D02*
X323850Y48499D01*
X542699Y364599D01*
X466499Y437299D02*
X542699Y415399D01*
Y364599D02*
Y389999D01*
Y415399D01*
X636501Y437299D01*
X712701Y415399D01*
Y364599D02*
Y389999D01*
Y415399D01*
X25799Y431899D02*
X31100Y518099D01*
X25799Y431899D02*
X75801D01*
X529999Y529999D01*
X593499Y538899D01*
X700001Y529999D01*
X763501Y538899D01*
X798581Y279400D02*
X812800Y114300D01*
X636501Y462699D02*
X687301Y364599D01*
X636501Y488099D02*
X687301Y389999D01*
X636501Y513499D02*
X687301Y415399D01*
X466499Y462699D02*
X517299Y364599D01*
X466499Y488099D02*
X517299Y389999D01*
X466499Y513499D02*
X517299Y415399D01*
X786480Y525899D02*
X959401Y660400D01*
X849980Y525600D02*
X929401Y660400D01*
X849980Y157899D02*
X899399Y660400D01*
X869399D02*
X894580Y361399D01*
X689100Y201300D02*
X798581Y50800D01*
X623601Y212801D02*
X689100Y201300D01*
X957100Y762000D01*
X740801Y740001D02*
X957100Y762000D01*
X386563Y347749D02*
X708101Y201300D01*
X929780Y272801D01*
X334239Y360449D02*
X942480Y406301D01*
X958220Y272801D01*
X334239Y347749D02*
X783600Y212801D01*
X862820Y202801D01*
X917080Y527101D01*
X480360Y41450D02*
X970920Y406301D01*
X480360Y54150D02*
X945520Y527101D01*
X494800Y162601D02*
X587040Y41450D01*
X648279Y127201D01*
X752919Y133701D01*
X587040Y28750D02*
X653699Y73701D01*
X787400Y114300D01*
X713501Y287500D02*
X763501Y411899D01*
X683499Y287500D02*
X763501Y437299D01*
X713501Y317500D02*
X763501Y462699D01*
X683499Y317500D02*
X763501Y488099D01*
X258201Y714601D02*
X466499Y411899D01*
X283601Y714601D02*
X466499Y386499D01*
X309001Y714601D02*
X466499Y361099D01*
X359801Y714601D02*
X927100Y762000D01*
X708899Y63500D02*
X827019Y50800D01*
X927100Y762000D01*
X436001Y714601D02*
X636501Y411899D01*
X461401Y714601D02*
X636501Y386499D01*
X486801Y714601D02*
X636501Y361099D01*
X486801Y740001D02*
X698599Y224300D01*
X461401Y740001D02*
X708101Y224300D01*
X385201Y740001D02*
X689100Y224300D01*
X548401Y287500D02*
X593499Y411899D01*
X518399Y287500D02*
X593499Y437299D01*
X548401Y317500D02*
X593499Y462699D01*
X518399Y317500D02*
X593499Y488099D01*
X114699Y253901D02*
X164701D01*
X235699Y202601D01*
X839201Y358699D02*
X923021Y361399D01*
X359801Y740001D02*
X839201Y358699D01*
X878421Y157899D02*
X915401Y202499D01*
X334401Y740001D02*
X915401Y202499D01*
X309001Y740001D02*
X851901Y570200D01*
X878421Y525600D01*
X814921Y525899D02*
X839201Y87899D01*
X283601Y740001D02*
X814921Y525899D01*
X446999Y31100D02*
X480360Y66850D01*
X553601Y212801D01*
X386563Y360449D02*
X553601Y212801D01*
X676720Y127201D02*
X827019Y279400D01*
X203200D02*
X290700Y202601D01*
X241300Y114300D02*
X290700Y202601D01*
X111760Y6350D02*
X137160D01*
X146050Y25400D02*
X242451Y51399D01*
X241300Y114300D02*
X242451Y51399D01*
X241300Y114300D02*
X323850Y78501D01*
X524800Y162601D01*
X587040Y66850D01*
Y54150D02*
Y66850D01*
X683699Y73701D01*
X738901Y63500D01*
X724479Y133701D02*
X738901Y63500D01*
X724479Y133701D02*
X800100Y133350D01*
X869201Y87899D01*
X945401Y202499D01*
X869201Y358699D02*
X945401Y202499D01*
X529999Y469999D02*
X593499Y361099D01*
X529999Y469999D02*
X593499Y513499D01*
X700001Y469999D01*
X815101Y355600D02*
X869201Y358699D01*
X763501Y361099D02*
X815101Y355600D01*
X897100Y762000D01*
X763501Y513499D02*
X897100Y762000D01*
X700001Y469999D02*
X763501Y513499D01*
X881901Y570200D01*
X929401Y690400D01*
X959401D01*
X899399D02*
X929401D01*
X869399D02*
X899399D01*
X334239Y335049D02*
X583601Y212801D01*
X446999Y61100D02*
X480360Y28750D01*
X446999Y61100D02*
X583601Y212801D01*
X653600D01*
X698599Y201300D01*
X753600Y212801D01*
X834380Y202801D01*
M02*
