G04 Layer_Color=16711935*
%FSLAX44Y44*%
%MOMM*%
G71*
G01*
G75*
%ADD63R,1.7032X1.7032*%
%ADD69C,3.6032*%
%ADD70C,1.7272*%
%ADD71C,1.4732*%
%ADD72C,1.7032*%
%ADD73C,1.4032*%
%ADD74R,1.4032X1.4032*%
%ADD75P,1.8695X8X202.5*%
%ADD76R,1.4032X1.4032*%
%ADD77C,2.3872*%
%ADD78C,1.8542*%
%ADD79R,1.8542X1.8542*%
%ADD80C,1.5531*%
%ADD81C,2.3876*%
%ADD82C,3.2032*%
%ADD83C,2.0032*%
%ADD84O,1.9581X3.7130*%
%ADD85C,0.9032*%
D63*
X24800Y275992D02*
D03*
X474800D02*
D03*
D69*
X35000Y35000D02*
D03*
X885000Y675000D02*
D03*
D70*
X861290Y535000D02*
D03*
Y505000D02*
D03*
Y475000D02*
D03*
Y445000D02*
D03*
X831290D02*
D03*
Y475000D02*
D03*
Y505000D02*
D03*
Y535000D02*
D03*
X48750Y374635D02*
D03*
Y404635D02*
D03*
X652500Y651654D02*
D03*
X682501Y651955D02*
D03*
X622501D02*
D03*
X332500Y62500D02*
D03*
X362500D02*
D03*
X392500D02*
D03*
X422500D02*
D03*
X150000D02*
D03*
X180000D02*
D03*
X210000D02*
D03*
X240000D02*
D03*
D71*
X870690Y415000D02*
D03*
Y565000D02*
D03*
X68350Y344635D02*
D03*
Y434635D02*
D03*
X592501Y631955D02*
D03*
X712501D02*
D03*
X302500Y82500D02*
D03*
X452500D02*
D03*
X120000D02*
D03*
X270000D02*
D03*
D72*
X24800Y250592D02*
D03*
Y225192D02*
D03*
X101000Y275992D02*
D03*
Y250592D02*
D03*
Y225192D02*
D03*
X474800Y250592D02*
D03*
Y225192D02*
D03*
X551000Y275992D02*
D03*
Y250592D02*
D03*
Y225192D02*
D03*
X152551Y352449D02*
D03*
D73*
X395000Y330000D02*
D03*
X178500D02*
D03*
X517500Y82500D02*
D03*
D74*
X360000Y330000D02*
D03*
X213500D02*
D03*
D75*
X522900Y652500D02*
D03*
X497500D02*
D03*
X472100D02*
D03*
X446700D02*
D03*
X421300D02*
D03*
X395900D02*
D03*
X522900Y627100D02*
D03*
X497500D02*
D03*
X472100D02*
D03*
X446700D02*
D03*
X421300D02*
D03*
X395900D02*
D03*
X370500Y652500D02*
D03*
Y627100D02*
D03*
X345100Y652500D02*
D03*
X319700D02*
D03*
X294300D02*
D03*
X268900D02*
D03*
X243500D02*
D03*
X218100D02*
D03*
X345100Y627100D02*
D03*
X319700D02*
D03*
X294300D02*
D03*
X268900D02*
D03*
X243500D02*
D03*
X218100D02*
D03*
X192700Y652500D02*
D03*
Y627100D02*
D03*
X167300Y652500D02*
D03*
X141900D02*
D03*
X116500D02*
D03*
X91100D02*
D03*
X65700D02*
D03*
X40300D02*
D03*
X167300Y627100D02*
D03*
X141900D02*
D03*
X116500D02*
D03*
X91100D02*
D03*
X65700D02*
D03*
X40300D02*
D03*
D76*
X517500Y32500D02*
D03*
D77*
X806100Y192240D02*
D03*
X647350Y34760D02*
D03*
D78*
X856900Y24600D02*
D03*
Y50000D02*
D03*
Y75400D02*
D03*
Y100800D02*
D03*
Y126200D02*
D03*
Y151600D02*
D03*
X577500Y24600D02*
D03*
Y50000D02*
D03*
Y75400D02*
D03*
Y100800D02*
D03*
Y126200D02*
D03*
Y151600D02*
D03*
Y177000D02*
D03*
X628300Y202400D02*
D03*
D79*
X856900Y177000D02*
D03*
Y202400D02*
D03*
X577500D02*
D03*
X602900D02*
D03*
D80*
X131714Y286400D02*
D03*
Y261000D02*
D03*
Y235600D02*
D03*
Y210200D02*
D03*
Y184800D02*
D03*
Y159400D02*
D03*
Y134000D02*
D03*
Y108600D02*
D03*
X258714D02*
D03*
Y134000D02*
D03*
Y159400D02*
D03*
Y184800D02*
D03*
Y210200D02*
D03*
Y235600D02*
D03*
Y261000D02*
D03*
Y286400D02*
D03*
X314000D02*
D03*
Y261000D02*
D03*
Y235600D02*
D03*
Y210200D02*
D03*
Y184800D02*
D03*
Y159400D02*
D03*
Y134000D02*
D03*
Y108600D02*
D03*
X441000D02*
D03*
Y134000D02*
D03*
Y159400D02*
D03*
Y184800D02*
D03*
Y210200D02*
D03*
Y235600D02*
D03*
Y261000D02*
D03*
Y286400D02*
D03*
X539100Y382500D02*
D03*
X513700D02*
D03*
X488300D02*
D03*
X462900D02*
D03*
X437500D02*
D03*
D81*
X536560Y551410D02*
D03*
X401940Y391390D02*
D03*
D82*
X54100Y562000D02*
D03*
Y468000D02*
D03*
X858440Y257500D02*
D03*
Y351500D02*
D03*
D83*
X49500Y515000D02*
D03*
X104500D02*
D03*
X863040Y304500D02*
D03*
X808040D02*
D03*
D84*
X345000Y435000D02*
D03*
Y384998D02*
D03*
X167002Y435000D02*
D03*
Y384998D02*
D03*
X166004Y477500D02*
D03*
Y527503D02*
D03*
X344002Y477500D02*
D03*
Y527503D02*
D03*
D85*
X177500Y667500D02*
D03*
X632500Y262500D02*
D03*
X484592Y125000D02*
D03*
X655000Y555000D02*
D03*
X185000Y562500D02*
D03*
X315000D02*
D03*
X422500Y565000D02*
D03*
X447500Y587500D02*
D03*
X395000Y580000D02*
D03*
X617500Y405000D02*
D03*
X770000Y487500D02*
D03*
X710000Y420000D02*
D03*
Y517500D02*
D03*
X407500Y417500D02*
D03*
X702500Y260000D02*
D03*
X730000D02*
D03*
X472500Y300000D02*
D03*
X647500Y377500D02*
D03*
X710000Y555000D02*
D03*
X646000Y481500D02*
D03*
X657500Y517500D02*
D03*
X587500Y580000D02*
D03*
X615000D02*
D03*
X462500Y307500D02*
D03*
X575000Y530000D02*
D03*
X95000Y82500D02*
D03*
X582500Y520000D02*
D03*
X590000Y510000D02*
D03*
X550000Y467500D02*
D03*
X552500Y510000D02*
D03*
M02*
