G04 Layer_Color=8421504*
%FSLAX44Y44*%
%MOMM*%
G71*
G01*
G75*
%ADD10R,1.7000X1.1000*%
%ADD11R,1.4000X1.2000*%
%ADD12R,1.2000X1.4000*%
%ADD13O,0.4000X1.6000*%
%ADD14R,0.7000X0.8000*%
%ADD15R,1.5000X1.5000*%
%ADD16R,1.5000X1.5000*%
G04:AMPARAMS|DCode=17|XSize=1.6mm|YSize=1.5mm|CornerRadius=0.075mm|HoleSize=0mm|Usage=FLASHONLY|Rotation=270.000|XOffset=0mm|YOffset=0mm|HoleType=Round|Shape=RoundedRectangle|*
%AMROUNDEDRECTD17*
21,1,1.6000,1.3500,0,0,270.0*
21,1,1.4500,1.5000,0,0,270.0*
1,1,0.1500,-0.6750,-0.7250*
1,1,0.1500,-0.6750,0.7250*
1,1,0.1500,0.6750,0.7250*
1,1,0.1500,0.6750,-0.7250*
%
%ADD17ROUNDEDRECTD17*%
G04:AMPARAMS|DCode=18|XSize=1.2mm|YSize=1.2mm|CornerRadius=0.06mm|HoleSize=0mm|Usage=FLASHONLY|Rotation=270.000|XOffset=0mm|YOffset=0mm|HoleType=Round|Shape=RoundedRectangle|*
%AMROUNDEDRECTD18*
21,1,1.2000,1.0800,0,0,270.0*
21,1,1.0800,1.2000,0,0,270.0*
1,1,0.1200,-0.5400,-0.5400*
1,1,0.1200,-0.5400,0.5400*
1,1,0.1200,0.5400,0.5400*
1,1,0.1200,0.5400,-0.5400*
%
%ADD18ROUNDEDRECTD18*%
%ADD19R,1.6000X3.0000*%
%ADD20R,5.8000X6.2000*%
%ADD21R,0.6000X1.4500*%
D10*
X708333Y568500D02*
D03*
Y541500D02*
D03*
X735950Y363750D02*
D03*
Y390750D02*
D03*
X703450D02*
D03*
Y363750D02*
D03*
X575000Y468000D02*
D03*
Y495000D02*
D03*
X605000Y468000D02*
D03*
Y495000D02*
D03*
X680000D02*
D03*
Y468000D02*
D03*
X710000D02*
D03*
Y495000D02*
D03*
X735000Y541500D02*
D03*
Y568500D02*
D03*
X681667Y541500D02*
D03*
Y568500D02*
D03*
X655000Y541500D02*
D03*
Y568500D02*
D03*
X740000Y468000D02*
D03*
Y495000D02*
D03*
D11*
X785000Y422000D02*
D03*
Y440000D02*
D03*
Y463333D02*
D03*
Y481333D02*
D03*
X601667Y546000D02*
D03*
Y564000D02*
D03*
X575000D02*
D03*
Y546000D02*
D03*
X628333Y564000D02*
D03*
Y546000D02*
D03*
X785000Y504667D02*
D03*
Y522667D02*
D03*
Y546000D02*
D03*
Y564000D02*
D03*
X467500Y191500D02*
D03*
Y173500D02*
D03*
X575950Y386250D02*
D03*
Y368250D02*
D03*
X605950Y386250D02*
D03*
Y368250D02*
D03*
X77500Y106000D02*
D03*
Y124000D02*
D03*
X407500Y513500D02*
D03*
Y531500D02*
D03*
X730000Y225484D02*
D03*
Y243484D02*
D03*
X703083D02*
D03*
Y225484D02*
D03*
D12*
X291500Y562500D02*
D03*
X273500D02*
D03*
D13*
X652500Y502500D02*
D03*
X646000D02*
D03*
X639500D02*
D03*
X633000D02*
D03*
X652500Y460500D02*
D03*
X646000D02*
D03*
X639500D02*
D03*
X633000D02*
D03*
D14*
X407500Y435000D02*
D03*
Y470000D02*
D03*
D15*
X242500Y562500D02*
D03*
X207500D02*
D03*
D16*
X105000Y142500D02*
D03*
Y107500D02*
D03*
X467500Y142908D02*
D03*
Y107908D02*
D03*
X676917Y225000D02*
D03*
Y260000D02*
D03*
X650000Y225000D02*
D03*
Y260000D02*
D03*
D17*
X615000Y245000D02*
D03*
D18*
X582500Y255000D02*
D03*
Y235000D02*
D03*
D19*
X502900Y529500D02*
D03*
X457100D02*
D03*
D20*
X480000Y465000D02*
D03*
D21*
X634400Y350000D02*
D03*
X647100D02*
D03*
X659800D02*
D03*
X672500D02*
D03*
X634400Y404500D02*
D03*
X647100D02*
D03*
X659800D02*
D03*
X672500D02*
D03*
M02*
