G04 Layer_Color=255*
%FSLAX44Y44*%
%MOMM*%
G71*
G01*
G75*
%ADD10R,1.7000X1.1000*%
%ADD11R,1.4000X1.2000*%
%ADD12R,1.2000X1.4000*%
%ADD13O,0.4000X1.6000*%
%ADD14R,0.7000X0.8000*%
%ADD15R,1.5000X1.5000*%
%ADD16R,1.5000X1.5000*%
G04:AMPARAMS|DCode=17|XSize=1.6mm|YSize=1.5mm|CornerRadius=0.075mm|HoleSize=0mm|Usage=FLASHONLY|Rotation=270.000|XOffset=0mm|YOffset=0mm|HoleType=Round|Shape=RoundedRectangle|*
%AMROUNDEDRECTD17*
21,1,1.6000,1.3500,0,0,270.0*
21,1,1.4500,1.5000,0,0,270.0*
1,1,0.1500,-0.6750,-0.7250*
1,1,0.1500,-0.6750,0.7250*
1,1,0.1500,0.6750,0.7250*
1,1,0.1500,0.6750,-0.7250*
%
%ADD17ROUNDEDRECTD17*%
G04:AMPARAMS|DCode=18|XSize=1.2mm|YSize=1.2mm|CornerRadius=0.06mm|HoleSize=0mm|Usage=FLASHONLY|Rotation=270.000|XOffset=0mm|YOffset=0mm|HoleType=Round|Shape=RoundedRectangle|*
%AMROUNDEDRECTD18*
21,1,1.2000,1.0800,0,0,270.0*
21,1,1.0800,1.2000,0,0,270.0*
1,1,0.1200,-0.5400,-0.5400*
1,1,0.1200,-0.5400,0.5400*
1,1,0.1200,0.5400,0.5400*
1,1,0.1200,0.5400,-0.5400*
%
%ADD18ROUNDEDRECTD18*%
%ADD19R,1.6000X3.0000*%
%ADD20R,5.8000X6.2000*%
%ADD21R,0.6000X1.4500*%
%ADD28C,3.4000*%
%ADD29C,1.5240*%
%ADD30C,1.2700*%
%ADD31C,1.5000*%
%ADD32C,1.2000*%
%ADD33R,1.2000X1.2000*%
%ADD34P,1.6496X8X202.5*%
%ADD35R,1.2000X1.2000*%
%ADD36C,2.1840*%
%ADD37C,1.6510*%
%ADD38R,1.6510X1.6510*%
%ADD39C,1.3499*%
%ADD40C,2.1844*%
%ADD41C,3.0000*%
%ADD42C,1.8000*%
%ADD43O,1.7549X3.5098*%
D10*
X708333Y568500D02*
D03*
Y541500D02*
D03*
X735950Y363750D02*
D03*
Y390750D02*
D03*
X703450D02*
D03*
Y363750D02*
D03*
X575000Y468000D02*
D03*
Y495000D02*
D03*
X605000Y468000D02*
D03*
Y495000D02*
D03*
X680000D02*
D03*
Y468000D02*
D03*
X710000D02*
D03*
Y495000D02*
D03*
X735000Y541500D02*
D03*
Y568500D02*
D03*
X681667Y541500D02*
D03*
Y568500D02*
D03*
X655000Y541500D02*
D03*
Y568500D02*
D03*
X740000Y468000D02*
D03*
Y495000D02*
D03*
D11*
X785000Y422000D02*
D03*
Y440000D02*
D03*
Y463333D02*
D03*
Y481333D02*
D03*
X601667Y546000D02*
D03*
Y564000D02*
D03*
X575000D02*
D03*
Y546000D02*
D03*
X628333Y564000D02*
D03*
Y546000D02*
D03*
X785000Y504667D02*
D03*
Y522667D02*
D03*
Y546000D02*
D03*
Y564000D02*
D03*
X467500Y191500D02*
D03*
Y173500D02*
D03*
X575950Y386250D02*
D03*
Y368250D02*
D03*
X605950Y386250D02*
D03*
Y368250D02*
D03*
X77500Y106000D02*
D03*
Y124000D02*
D03*
X407500Y513500D02*
D03*
Y531500D02*
D03*
X730000Y225484D02*
D03*
Y243484D02*
D03*
X703083D02*
D03*
Y225484D02*
D03*
D12*
X291500Y562500D02*
D03*
X273500D02*
D03*
D13*
X652500Y502500D02*
D03*
X646000D02*
D03*
X639500D02*
D03*
X633000D02*
D03*
X652500Y460500D02*
D03*
X646000D02*
D03*
X639500D02*
D03*
X633000D02*
D03*
D14*
X407500Y435000D02*
D03*
Y470000D02*
D03*
D15*
X242500Y562500D02*
D03*
X207500D02*
D03*
D16*
X105000Y142500D02*
D03*
Y107500D02*
D03*
X467500Y142908D02*
D03*
Y107908D02*
D03*
X676917Y225000D02*
D03*
Y260000D02*
D03*
X650000Y225000D02*
D03*
Y260000D02*
D03*
X24800Y275992D02*
D03*
X474800D02*
D03*
D17*
X615000Y245000D02*
D03*
D18*
X582500Y255000D02*
D03*
Y235000D02*
D03*
D19*
X502900Y529500D02*
D03*
X457100D02*
D03*
D20*
X480000Y465000D02*
D03*
D21*
X634400Y350000D02*
D03*
X647100D02*
D03*
X659800D02*
D03*
X672500D02*
D03*
X634400Y404500D02*
D03*
X647100D02*
D03*
X659800D02*
D03*
X672500D02*
D03*
D28*
X35000Y35000D02*
D03*
X885000Y675000D02*
D03*
D29*
X861290Y535000D02*
D03*
Y505000D02*
D03*
Y475000D02*
D03*
Y445000D02*
D03*
X831290D02*
D03*
Y475000D02*
D03*
Y505000D02*
D03*
Y535000D02*
D03*
X48750Y374635D02*
D03*
Y404635D02*
D03*
X652500Y651654D02*
D03*
X682501Y651955D02*
D03*
X622501D02*
D03*
X332500Y62500D02*
D03*
X362500D02*
D03*
X392500D02*
D03*
X422500D02*
D03*
X150000D02*
D03*
X180000D02*
D03*
X210000D02*
D03*
X240000D02*
D03*
D30*
X870690Y415000D02*
D03*
Y565000D02*
D03*
X68350Y344635D02*
D03*
Y434635D02*
D03*
X592501Y631955D02*
D03*
X712501D02*
D03*
X302500Y82500D02*
D03*
X452500D02*
D03*
X120000D02*
D03*
X270000D02*
D03*
D31*
X24800Y250592D02*
D03*
Y225192D02*
D03*
X101000Y275992D02*
D03*
Y250592D02*
D03*
Y225192D02*
D03*
X474800Y250592D02*
D03*
Y225192D02*
D03*
X551000Y275992D02*
D03*
Y250592D02*
D03*
Y225192D02*
D03*
D32*
X395000Y330000D02*
D03*
X178500D02*
D03*
X517500Y82500D02*
D03*
D33*
X360000Y330000D02*
D03*
X213500D02*
D03*
D34*
X522900Y652500D02*
D03*
X497500D02*
D03*
X472100D02*
D03*
X446700D02*
D03*
X421300D02*
D03*
X395900D02*
D03*
X522900Y627100D02*
D03*
X497500D02*
D03*
X472100D02*
D03*
X446700D02*
D03*
X421300D02*
D03*
X395900D02*
D03*
X370500Y652500D02*
D03*
Y627100D02*
D03*
X345100Y652500D02*
D03*
X319700D02*
D03*
X294300D02*
D03*
X268900D02*
D03*
X243500D02*
D03*
X218100D02*
D03*
X345100Y627100D02*
D03*
X319700D02*
D03*
X294300D02*
D03*
X268900D02*
D03*
X243500D02*
D03*
X218100D02*
D03*
X192700Y652500D02*
D03*
Y627100D02*
D03*
X167300Y652500D02*
D03*
X141900D02*
D03*
X116500D02*
D03*
X91100D02*
D03*
X65700D02*
D03*
X40300D02*
D03*
X167300Y627100D02*
D03*
X141900D02*
D03*
X116500D02*
D03*
X91100D02*
D03*
X65700D02*
D03*
X40300D02*
D03*
D35*
X517500Y32500D02*
D03*
D36*
X806100Y192240D02*
D03*
X647350Y34760D02*
D03*
D37*
X856900Y24600D02*
D03*
Y50000D02*
D03*
Y75400D02*
D03*
Y100800D02*
D03*
Y126200D02*
D03*
Y151600D02*
D03*
X577500Y24600D02*
D03*
Y50000D02*
D03*
Y75400D02*
D03*
Y100800D02*
D03*
Y126200D02*
D03*
Y151600D02*
D03*
Y177000D02*
D03*
X628300Y202400D02*
D03*
D38*
X856900Y177000D02*
D03*
Y202400D02*
D03*
X577500D02*
D03*
X602900D02*
D03*
D39*
X131714Y286400D02*
D03*
Y261000D02*
D03*
Y235600D02*
D03*
Y210200D02*
D03*
Y184800D02*
D03*
Y159400D02*
D03*
Y134000D02*
D03*
Y108600D02*
D03*
X258714D02*
D03*
Y134000D02*
D03*
Y159400D02*
D03*
Y184800D02*
D03*
Y210200D02*
D03*
Y235600D02*
D03*
Y261000D02*
D03*
Y286400D02*
D03*
X314000D02*
D03*
Y261000D02*
D03*
Y235600D02*
D03*
Y210200D02*
D03*
Y184800D02*
D03*
Y159400D02*
D03*
Y134000D02*
D03*
Y108600D02*
D03*
X441000D02*
D03*
Y134000D02*
D03*
Y159400D02*
D03*
Y184800D02*
D03*
Y210200D02*
D03*
Y235600D02*
D03*
Y261000D02*
D03*
Y286400D02*
D03*
X539100Y382500D02*
D03*
X513700D02*
D03*
X488300D02*
D03*
X462900D02*
D03*
X437500D02*
D03*
D40*
X536560Y551410D02*
D03*
X401940Y391390D02*
D03*
D41*
X54100Y562000D02*
D03*
Y468000D02*
D03*
X858440Y257500D02*
D03*
Y351500D02*
D03*
D42*
X49500Y515000D02*
D03*
X104500D02*
D03*
X863040Y304500D02*
D03*
X808040D02*
D03*
D43*
X345000Y435000D02*
D03*
Y384998D02*
D03*
X167002Y435000D02*
D03*
Y384998D02*
D03*
X166004Y477500D02*
D03*
Y527503D02*
D03*
X344002Y477500D02*
D03*
Y527503D02*
D03*
M02*
