G04 Layer_Color=8388736*
%FSLAX44Y44*%
%MOMM*%
G71*
G01*
G75*
%ADD86C,0.0025*%
D86*
X808005Y163030D02*
X811815D01*
X856900Y197320D02*
Y207480D01*
X851820Y202400D02*
X861980D01*
X856900Y171920D02*
Y182080D01*
X851820Y177000D02*
X861980D01*
X856900Y146520D02*
Y156680D01*
X851820Y151600D02*
X861980D01*
X856900Y19520D02*
Y29680D01*
X851820Y24600D02*
X861980D01*
X856900Y44920D02*
Y55080D01*
X851820Y50000D02*
X861980D01*
X856900Y70320D02*
Y80480D01*
X851820Y75400D02*
X861980D01*
X856900Y95720D02*
Y105880D01*
X851820Y100800D02*
X861980D01*
X856900Y121120D02*
Y131280D01*
X851820Y126200D02*
X861980D01*
X872140Y77584D02*
Y99428D01*
X861218Y88506D02*
X883062D01*
X872140Y27572D02*
Y49416D01*
X861218Y38494D02*
X883062D01*
X872140Y127572D02*
Y149416D01*
X861218Y138494D02*
X883062D01*
X872140Y177584D02*
Y199428D01*
X861218Y188506D02*
X883062D01*
X602900Y197320D02*
Y207480D01*
X597820Y202400D02*
X607980D01*
X628300Y197320D02*
Y207480D01*
X623220Y202400D02*
X633380D01*
X577500Y197320D02*
Y207480D01*
X572420Y202400D02*
X582580D01*
X577500Y171920D02*
Y182080D01*
X572420Y177000D02*
X582580D01*
X577500Y146520D02*
Y156680D01*
X572420Y151600D02*
X582580D01*
X577500Y19520D02*
Y29680D01*
X572420Y24600D02*
X582580D01*
X577500Y44920D02*
Y55080D01*
X572420Y50000D02*
X582580D01*
X577500Y70320D02*
Y80480D01*
X572420Y75400D02*
X582580D01*
X577500Y95720D02*
Y105880D01*
X572420Y100800D02*
X582580D01*
X577500Y121120D02*
Y131280D01*
X572420Y126200D02*
X582580D01*
X647350Y23838D02*
Y45682D01*
X636428Y34760D02*
X658272D01*
X806100Y181318D02*
Y203162D01*
X795178Y192240D02*
X817022D01*
X897540Y11900D02*
Y215100D01*
X564800D02*
X895000D01*
X564800Y11900D02*
Y215100D01*
Y11900D02*
X895000D01*
M02*
