M48
;Layer_Color=9474304
;FILE_FORMAT=4:4
METRIC,LZ
;TYPE=PLATED
T1F00S00C0.3500
T2F00S00C0.3500
T3F00S00C0.6000
T4F00S00C0.8999
T5F00S00C0.9000
T6F00S00C1.0000
T7F00S00C1.0160
T8F00S00C1.0160
T9F00S00C1.0200
T10F00S00C1.1699
T11F00S00C1.4000
;TYPE=NON_PLATED
T12F00S00C1.2700
T13F00S00C2.1840
T14F00S00C2.1844
T15F00S00C3.0000
T16F00S00C3.4000
%
T01
X00095Y000825
X00484592Y00125
X006325Y002625
X006475Y003775
X006175Y00405
X0071Y0042
Y005175
X0055Y004675
X004075Y004175
X004625Y003075
X004725Y003
X00315Y005625
X00185
X00655Y00555
T02
X007025Y0026
X0073
X0077Y004875
X00646Y004815
X006575Y005175
X0059Y0051
X005825Y0052
X00575Y0053
X005525Y0051
X004475Y005875
X004225Y00565
X00395Y0058
X001775Y006675
X005875Y0058
X00615
X0071Y00555
T03
X005175Y000325
Y000825
X00395Y0033
X0036
X002135
X001785
T04
X00131714Y001086
Y00134
X00258714
Y001086
X00314
Y00134
X00441
Y001086
Y001594
Y001848
Y002102
Y002356
Y00261
Y002864
X004375Y003825
X004629
X004883
X005137
X005391
X00314Y002864
Y00261
Y002356
Y002102
Y001848
Y001594
X00258714
Y001848
Y002102
Y002356
Y00261
Y002864
X00131714
Y00261
Y002356
Y002102
Y001848
Y001594
T05
X00551Y00225192
Y00250592
Y00275992
X004748
Y00250592
Y00225192
X00101
Y00250592
Y00275992
X000248
Y00250592
Y00225192
T06
X00152551Y00352449
T07
X005775Y000246
Y0005
Y000754
Y001008
Y001262
X008569
Y001008
Y000754
Y0005
Y000246
Y001516
Y00177
Y002024
X006283
X006029
X005775
Y00177
Y001516
T08
X000403Y006271
Y006525
X000657
X000911
X001165
X001419
Y006271
X001165
X000911
X000657
X001673
X001927
X002181
Y006525
X002435
X002689
X002943
X003197
X003451
X003705
X003959
X004213
X004467
X004721
X004975
X005229
Y006271
X004975
X004721
X004467
X004213
X003959
X003705
X003451
X003197
X002943
X002689
X002435
X001927Y006525
X001673
T09
X0015Y000625
X0018
X0021
X0024
X003325
X003625
X003925
X004225
X0083129Y00445
X0086129
Y00475
Y00505
X0083129
Y00475
Y00535
X0086129
X0004875Y00404635
Y00374635
X00622501Y00651955
X006525Y00651654
X00682501Y00651955
T10
X00167002Y00384998
Y00435
X00166004Y004775
Y00527503
X00344002
Y004775
X00345Y00435
Y00384998
T11
X0080804Y003045
X0086304
X001045Y00515
X000495
T12
X0012Y000825
X0027
X003025
X004525
X0087069Y00415
X0006835Y00434635
Y00344635
X00592501Y00631955
X00712501
X0087069Y00565
T13
X0064735Y0003476
X008061Y0019224
T14
X0040194Y0039139
X0053656Y0055141
T15
X0085844Y002575
Y003515
X000541Y00468
Y00562
T16
X00035Y00035
X00885Y00675
M30
